<mxfile host="app.diagrams.net" modified="2024-03-01T11:42:50.161Z" agent="Mozilla/5.0 (Windows NT 10.0; Win64; x64) AppleWebKit/537.36 (KHTML, like Gecko) Chrome/121.0.0.0 Safari/537.36" etag="W70feLPTfbbGekKjP_cc" version="24.0.0" type="device">
  <diagram name="Страница — 1" id="1uP1tAXWSZCw3yykBzZe">
    <mxGraphModel dx="1434" dy="780" grid="1" gridSize="10" guides="1" tooltips="1" connect="1" arrows="1" fold="1" page="1" pageScale="1" pageWidth="827" pageHeight="1169" math="0" shadow="0">
      <root>
        <mxCell id="0" />
        <mxCell id="1" parent="0" />
        <mxCell id="btMz1Gv9HVpv3Nm8DGH4-4" value="" style="edgeStyle=orthogonalEdgeStyle;rounded=0;orthogonalLoop=1;jettySize=auto;html=1;" edge="1" parent="1" source="btMz1Gv9HVpv3Nm8DGH4-1" target="btMz1Gv9HVpv3Nm8DGH4-3">
          <mxGeometry relative="1" as="geometry" />
        </mxCell>
        <mxCell id="btMz1Gv9HVpv3Nm8DGH4-1" value="start" style="rounded=1;whiteSpace=wrap;html=1;arcSize=50;" vertex="1" parent="1">
          <mxGeometry x="130" y="110" width="120" height="30" as="geometry" />
        </mxCell>
        <mxCell id="btMz1Gv9HVpv3Nm8DGH4-6" value="" style="edgeStyle=orthogonalEdgeStyle;rounded=0;orthogonalLoop=1;jettySize=auto;html=1;" edge="1" parent="1" source="btMz1Gv9HVpv3Nm8DGH4-3" target="btMz1Gv9HVpv3Nm8DGH4-5">
          <mxGeometry relative="1" as="geometry" />
        </mxCell>
        <mxCell id="btMz1Gv9HVpv3Nm8DGH4-7" value="letter|digit|" style="edgeLabel;html=1;align=center;verticalAlign=middle;resizable=0;points=[];" vertex="1" connectable="0" parent="btMz1Gv9HVpv3Nm8DGH4-6">
          <mxGeometry x="-0.0462" y="1" relative="1" as="geometry">
            <mxPoint x="59" y="-74" as="offset" />
          </mxGeometry>
        </mxCell>
        <mxCell id="btMz1Gv9HVpv3Nm8DGH4-20" style="edgeStyle=orthogonalEdgeStyle;rounded=0;orthogonalLoop=1;jettySize=auto;html=1;exitX=0.5;exitY=1;exitDx=0;exitDy=0;entryX=0;entryY=0.5;entryDx=0;entryDy=0;" edge="1" parent="1" source="btMz1Gv9HVpv3Nm8DGH4-3" target="btMz1Gv9HVpv3Nm8DGH4-18">
          <mxGeometry relative="1" as="geometry" />
        </mxCell>
        <mxCell id="btMz1Gv9HVpv3Nm8DGH4-22" value="(" style="edgeLabel;html=1;align=center;verticalAlign=middle;resizable=0;points=[];" vertex="1" connectable="0" parent="btMz1Gv9HVpv3Nm8DGH4-20">
          <mxGeometry x="0.6432" y="2" relative="1" as="geometry">
            <mxPoint x="-7" y="-13" as="offset" />
          </mxGeometry>
        </mxCell>
        <mxCell id="btMz1Gv9HVpv3Nm8DGH4-21" style="edgeStyle=orthogonalEdgeStyle;rounded=0;orthogonalLoop=1;jettySize=auto;html=1;exitX=0.5;exitY=1;exitDx=0;exitDy=0;entryX=0;entryY=0.5;entryDx=0;entryDy=0;" edge="1" parent="1" source="btMz1Gv9HVpv3Nm8DGH4-3" target="btMz1Gv9HVpv3Nm8DGH4-19">
          <mxGeometry relative="1" as="geometry" />
        </mxCell>
        <mxCell id="btMz1Gv9HVpv3Nm8DGH4-30" style="edgeStyle=orthogonalEdgeStyle;rounded=0;orthogonalLoop=1;jettySize=auto;html=1;exitX=0.5;exitY=1;exitDx=0;exitDy=0;entryX=0;entryY=0.5;entryDx=0;entryDy=0;" edge="1" parent="1" source="btMz1Gv9HVpv3Nm8DGH4-3" target="btMz1Gv9HVpv3Nm8DGH4-28">
          <mxGeometry relative="1" as="geometry" />
        </mxCell>
        <mxCell id="btMz1Gv9HVpv3Nm8DGH4-37" value="+" style="edgeLabel;html=1;align=center;verticalAlign=middle;resizable=0;points=[];" vertex="1" connectable="0" parent="btMz1Gv9HVpv3Nm8DGH4-30">
          <mxGeometry x="0.6358" y="-5" relative="1" as="geometry">
            <mxPoint x="21" y="-20" as="offset" />
          </mxGeometry>
        </mxCell>
        <mxCell id="btMz1Gv9HVpv3Nm8DGH4-31" style="edgeStyle=orthogonalEdgeStyle;rounded=0;orthogonalLoop=1;jettySize=auto;html=1;exitX=0.5;exitY=1;exitDx=0;exitDy=0;entryX=0;entryY=0.5;entryDx=0;entryDy=0;" edge="1" parent="1" source="btMz1Gv9HVpv3Nm8DGH4-3" target="btMz1Gv9HVpv3Nm8DGH4-29">
          <mxGeometry relative="1" as="geometry" />
        </mxCell>
        <mxCell id="btMz1Gv9HVpv3Nm8DGH4-38" value="-" style="edgeLabel;html=1;align=center;verticalAlign=middle;resizable=0;points=[];" vertex="1" connectable="0" parent="btMz1Gv9HVpv3Nm8DGH4-31">
          <mxGeometry x="0.7882" y="4" relative="1" as="geometry">
            <mxPoint x="5" y="-11" as="offset" />
          </mxGeometry>
        </mxCell>
        <mxCell id="btMz1Gv9HVpv3Nm8DGH4-3" value="0" style="ellipse;whiteSpace=wrap;html=1;aspect=fixed;" vertex="1" parent="1">
          <mxGeometry x="165" y="200" width="50" height="50" as="geometry" />
        </mxCell>
        <mxCell id="btMz1Gv9HVpv3Nm8DGH4-48" value="" style="edgeStyle=orthogonalEdgeStyle;rounded=0;orthogonalLoop=1;jettySize=auto;html=1;entryX=-0.019;entryY=0.567;entryDx=0;entryDy=0;entryPerimeter=0;" edge="1" parent="1" source="btMz1Gv9HVpv3Nm8DGH4-5" target="btMz1Gv9HVpv3Nm8DGH4-47">
          <mxGeometry relative="1" as="geometry">
            <Array as="points">
              <mxPoint x="305" y="280" />
              <mxPoint x="477" y="280" />
            </Array>
          </mxGeometry>
        </mxCell>
        <mxCell id="btMz1Gv9HVpv3Nm8DGH4-5" value="1" style="ellipse;whiteSpace=wrap;html=1;aspect=fixed;" vertex="1" parent="1">
          <mxGeometry x="280" y="200" width="50" height="50" as="geometry" />
        </mxCell>
        <mxCell id="btMz1Gv9HVpv3Nm8DGH4-9" value="" style="endArrow=classic;html=1;rounded=0;entryX=0.8;entryY=0;entryDx=0;entryDy=0;entryPerimeter=0;" edge="1" parent="1" target="btMz1Gv9HVpv3Nm8DGH4-5">
          <mxGeometry width="50" height="50" relative="1" as="geometry">
            <mxPoint x="300" y="200" as="sourcePoint" />
            <mxPoint x="350" y="150" as="targetPoint" />
            <Array as="points">
              <mxPoint x="300" y="170" />
              <mxPoint x="320" y="170" />
            </Array>
          </mxGeometry>
        </mxCell>
        <mxCell id="btMz1Gv9HVpv3Nm8DGH4-10" value="letter" style="edgeLabel;html=1;align=center;verticalAlign=middle;resizable=0;points=[];" vertex="1" connectable="0" parent="1">
          <mxGeometry x="250" y="200" as="geometry">
            <mxPoint x="-10" y="10" as="offset" />
          </mxGeometry>
        </mxCell>
        <mxCell id="btMz1Gv9HVpv3Nm8DGH4-11" value="" style="endArrow=classic;html=1;rounded=0;exitX=1;exitY=0;exitDx=0;exitDy=0;" edge="1" parent="1">
          <mxGeometry width="50" height="50" relative="1" as="geometry">
            <mxPoint x="329.9976695296628" y="210.32233047033685" as="sourcePoint" />
            <mxPoint x="497.32" y="210" as="targetPoint" />
            <Array as="points">
              <mxPoint x="437.32" y="210" />
            </Array>
          </mxGeometry>
        </mxCell>
        <mxCell id="btMz1Gv9HVpv3Nm8DGH4-12" value="if&amp;nbsp;DECLARE" style="edgeLabel;html=1;align=center;verticalAlign=middle;resizable=0;points=[];" vertex="1" connectable="0" parent="btMz1Gv9HVpv3Nm8DGH4-11">
          <mxGeometry x="-0.5658" relative="1" as="geometry">
            <mxPoint x="21" y="-17" as="offset" />
          </mxGeometry>
        </mxCell>
        <mxCell id="btMz1Gv9HVpv3Nm8DGH4-13" value="code=1 ключевое слово" style="text;html=1;align=center;verticalAlign=middle;resizable=0;points=[];autosize=1;strokeColor=none;fillColor=none;" vertex="1" parent="1">
          <mxGeometry x="500" y="190" width="160" height="30" as="geometry" />
        </mxCell>
        <mxCell id="btMz1Gv9HVpv3Nm8DGH4-27" style="edgeStyle=orthogonalEdgeStyle;rounded=0;orthogonalLoop=1;jettySize=auto;html=1;exitX=1;exitY=0.5;exitDx=0;exitDy=0;" edge="1" parent="1" source="btMz1Gv9HVpv3Nm8DGH4-18" target="btMz1Gv9HVpv3Nm8DGH4-24">
          <mxGeometry relative="1" as="geometry" />
        </mxCell>
        <mxCell id="btMz1Gv9HVpv3Nm8DGH4-18" value="2" style="ellipse;whiteSpace=wrap;html=1;aspect=fixed;" vertex="1" parent="1">
          <mxGeometry x="280" y="320" width="50" height="50" as="geometry" />
        </mxCell>
        <mxCell id="btMz1Gv9HVpv3Nm8DGH4-26" style="edgeStyle=orthogonalEdgeStyle;rounded=0;orthogonalLoop=1;jettySize=auto;html=1;exitX=1;exitY=0.5;exitDx=0;exitDy=0;" edge="1" parent="1" source="btMz1Gv9HVpv3Nm8DGH4-19" target="btMz1Gv9HVpv3Nm8DGH4-25">
          <mxGeometry relative="1" as="geometry" />
        </mxCell>
        <mxCell id="btMz1Gv9HVpv3Nm8DGH4-19" value="3" style="ellipse;whiteSpace=wrap;html=1;aspect=fixed;" vertex="1" parent="1">
          <mxGeometry x="280" y="390" width="50" height="50" as="geometry" />
        </mxCell>
        <mxCell id="btMz1Gv9HVpv3Nm8DGH4-23" value=")" style="edgeLabel;html=1;align=center;verticalAlign=middle;resizable=0;points=[];" vertex="1" connectable="0" parent="1">
          <mxGeometry x="260" y="320" as="geometry">
            <mxPoint x="-18" y="74" as="offset" />
          </mxGeometry>
        </mxCell>
        <mxCell id="btMz1Gv9HVpv3Nm8DGH4-24" value="code=5 ограничитель (левая скобка&lt;span style=&quot;background-color: initial;&quot;&gt;)&lt;/span&gt;" style="text;html=1;align=center;verticalAlign=middle;resizable=0;points=[];autosize=1;strokeColor=none;fillColor=none;" vertex="1" parent="1">
          <mxGeometry x="375" y="330" width="230" height="30" as="geometry" />
        </mxCell>
        <mxCell id="btMz1Gv9HVpv3Nm8DGH4-25" value="code=6 ограничитель (праваяскобка&lt;span style=&quot;background-color: initial;&quot;&gt;)&lt;/span&gt;" style="text;html=1;align=center;verticalAlign=middle;resizable=0;points=[];autosize=1;strokeColor=none;fillColor=none;" vertex="1" parent="1">
          <mxGeometry x="385" y="400" width="230" height="30" as="geometry" />
        </mxCell>
        <mxCell id="btMz1Gv9HVpv3Nm8DGH4-35" style="edgeStyle=orthogonalEdgeStyle;rounded=0;orthogonalLoop=1;jettySize=auto;html=1;exitX=1;exitY=0.5;exitDx=0;exitDy=0;" edge="1" parent="1" source="btMz1Gv9HVpv3Nm8DGH4-28" target="btMz1Gv9HVpv3Nm8DGH4-32">
          <mxGeometry relative="1" as="geometry" />
        </mxCell>
        <mxCell id="btMz1Gv9HVpv3Nm8DGH4-28" value="4" style="ellipse;whiteSpace=wrap;html=1;aspect=fixed;" vertex="1" parent="1">
          <mxGeometry x="280" y="470" width="50" height="50" as="geometry" />
        </mxCell>
        <mxCell id="btMz1Gv9HVpv3Nm8DGH4-29" value="5" style="ellipse;whiteSpace=wrap;html=1;aspect=fixed;" vertex="1" parent="1">
          <mxGeometry x="280" y="560" width="50" height="50" as="geometry" />
        </mxCell>
        <mxCell id="btMz1Gv9HVpv3Nm8DGH4-32" value="code=7 разделитель(плюс)" style="text;html=1;align=center;verticalAlign=middle;resizable=0;points=[];autosize=1;strokeColor=none;fillColor=none;" vertex="1" parent="1">
          <mxGeometry x="415" y="480" width="170" height="30" as="geometry" />
        </mxCell>
        <mxCell id="btMz1Gv9HVpv3Nm8DGH4-33" value="code=8 разделитель (минус)" style="text;html=1;align=center;verticalAlign=middle;resizable=0;points=[];autosize=1;strokeColor=none;fillColor=none;" vertex="1" parent="1">
          <mxGeometry x="410" y="570" width="180" height="30" as="geometry" />
        </mxCell>
        <mxCell id="btMz1Gv9HVpv3Nm8DGH4-36" style="edgeStyle=orthogonalEdgeStyle;rounded=0;orthogonalLoop=1;jettySize=auto;html=1;exitX=1;exitY=0.5;exitDx=0;exitDy=0;entryX=-0.007;entryY=0.5;entryDx=0;entryDy=0;entryPerimeter=0;" edge="1" parent="1" source="btMz1Gv9HVpv3Nm8DGH4-29" target="btMz1Gv9HVpv3Nm8DGH4-33">
          <mxGeometry relative="1" as="geometry" />
        </mxCell>
        <mxCell id="btMz1Gv9HVpv3Nm8DGH4-39" value="" style="endArrow=classic;html=1;rounded=0;exitX=1;exitY=0;exitDx=0;exitDy=0;" edge="1" parent="1">
          <mxGeometry width="50" height="50" relative="1" as="geometry">
            <mxPoint x="329.9976695296628" y="230.32233047033685" as="sourcePoint" />
            <mxPoint x="497.32" y="230" as="targetPoint" />
            <Array as="points">
              <mxPoint x="437.32" y="230" />
            </Array>
          </mxGeometry>
        </mxCell>
        <mxCell id="btMz1Gv9HVpv3Nm8DGH4-40" value="if&amp;nbsp;CONST" style="edgeLabel;html=1;align=center;verticalAlign=middle;resizable=0;points=[];" vertex="1" connectable="0" parent="btMz1Gv9HVpv3Nm8DGH4-39">
          <mxGeometry x="-0.5658" relative="1" as="geometry">
            <mxPoint x="19" y="-10" as="offset" />
          </mxGeometry>
        </mxCell>
        <mxCell id="btMz1Gv9HVpv3Nm8DGH4-41" value="" style="endArrow=classic;html=1;rounded=0;exitX=1;exitY=0;exitDx=0;exitDy=0;" edge="1" parent="1">
          <mxGeometry width="50" height="50" relative="1" as="geometry">
            <mxPoint x="309.9976695296628" y="249.32233047033685" as="sourcePoint" />
            <mxPoint x="477.32" y="249" as="targetPoint" />
            <Array as="points">
              <mxPoint x="417.32" y="249" />
            </Array>
          </mxGeometry>
        </mxCell>
        <mxCell id="btMz1Gv9HVpv3Nm8DGH4-42" value="if VAT" style="edgeLabel;html=1;align=center;verticalAlign=middle;resizable=0;points=[];" vertex="1" connectable="0" parent="btMz1Gv9HVpv3Nm8DGH4-41">
          <mxGeometry x="-0.5658" relative="1" as="geometry">
            <mxPoint x="19" y="-10" as="offset" />
          </mxGeometry>
        </mxCell>
        <mxCell id="btMz1Gv9HVpv3Nm8DGH4-43" value="code=2 ключевое слово" style="text;html=1;align=center;verticalAlign=middle;resizable=0;points=[];autosize=1;strokeColor=none;fillColor=none;" vertex="1" parent="1">
          <mxGeometry x="500" y="210" width="160" height="30" as="geometry" />
        </mxCell>
        <mxCell id="btMz1Gv9HVpv3Nm8DGH4-44" value="code=3 ключевое слово" style="text;html=1;align=center;verticalAlign=middle;resizable=0;points=[];autosize=1;strokeColor=none;fillColor=none;" vertex="1" parent="1">
          <mxGeometry x="480" y="230" width="160" height="30" as="geometry" />
        </mxCell>
        <mxCell id="btMz1Gv9HVpv3Nm8DGH4-45" value="if ASSIGMENT" style="text;whiteSpace=wrap;" vertex="1" parent="1">
          <mxGeometry x="350" y="255" width="100" height="40" as="geometry" />
        </mxCell>
        <mxCell id="btMz1Gv9HVpv3Nm8DGH4-47" value="code=4 ключевое слово" style="text;html=1;align=center;verticalAlign=middle;resizable=0;points=[];autosize=1;strokeColor=none;fillColor=none;" vertex="1" parent="1">
          <mxGeometry x="480" y="265" width="160" height="30" as="geometry" />
        </mxCell>
      </root>
    </mxGraphModel>
  </diagram>
</mxfile>
